<svg width="32" height="32" viewBox="0 0 64 64" fill="none" xmlns="http://www.w3.org/2000/svg">
    <!-- Outer cyan circle -->
    <circle cx="32" cy="32" r="30" stroke="#00D4FF" stroke-width="4" fill="none" opacity="0.8"/>
    
    <!-- Clock face -->
    <circle cx="32" cy="32" r="20" fill="rgba(255, 255, 255, 0.9)" stroke="#E5E7EB" stroke-width="2"/>
    
    <!-- Clock hour markers -->
    <circle cx="32" cy="16" r="1.5" fill="#6B7280"/>
    <circle cx="48" cy="32" r="1.5" fill="#6B7280"/>
    <circle cx="32" cy="48" r="1.5" fill="#6B7280"/>
    <circle cx="16" cy="32" r="1.5" fill="#6B7280"/>
    
    <!-- Clock hands -->
    <line x1="32" y1="32" x2="32" y2="22" stroke="#374151" stroke-width="2" stroke-linecap="round"/>
    <line x1="32" y1="32" x2="40" y2="32" stroke="#374151" stroke-width="2" stroke-linecap="round"/>
    <circle cx="32" cy="32" r="2" fill="#374151"/>
    
    <!-- Growth arrow -->
    <path 
        d="M20 45 L50 15 M45 15 L50 15 L50 20" 
        stroke="#7DD3FC" 
        stroke-width="3" 
        stroke-linecap="round" 
        stroke-linejoin="round"
        fill="none"
    />
    
    <!-- Bar chart elements -->
    <rect x="8" y="50" width="4" height="8" fill="#7DD3FC" rx="1"/>
    <rect x="14" y="46" width="4" height="12" fill="#38BDF8" rx="1"/>
    <rect x="20" y="42" width="4" height="16" fill="#0EA5E9" rx="1"/>
    
    <!-- Additional growth bars on the right -->
    <rect x="52" y="48" width="4" height="10" fill="#84CC16" rx="1"/>
    <rect x="58" y="44" width="4" height="14" fill="#65A30D" rx="1"/>
</svg>
